<svg xmlns="http://www.w3.org/2000/svg" class="svg horizontalThree" version="1.1" xml:space="preserve" enable-background="new 0 0 516.39625 68" x="0px" y="0px" preserveAspectRatio="xMinYMin" viewBox="0 0 516.39625 68" width="516.39625px" height="68px">
  <rect fill="#990000" width="58" height="68" x="0" y="0"/>
  <polygon fill="#FFFFFF" points="35.6,16.4 35.6,20 38.1,20 38.1,40.1 32.8,40.1 32.8,13.6 35.6,13.6 35.6,10 22.4,10 22.4,13.6 25.2,13.6 25.2,40.1 19.9,40.1 19.9,20 22.4,20 22.4,16.4 10,16.4 10,20 12.8,20 12.8,43.3 17.4,47.9 25.2,47.9 25.2,53.3 22.4,53.3 22.4,58 35.6,58 35.6,53.3 32.8,53.3 32.8,47.9 40.6,47.9 45.2,43.3 45.2,20 48,20 48,16.4" transform="translate(0,0)"/>
  <g transform="translate(70.3225,34.225)">
    <g transform="scale(0.0159375) translate(0, 0)">
      <path transform="translate(0,0) rotate(180) scale(-1, 1)" d="M 168 1516 L 340 1516 L 340 0 L 168 0 L 168 1516 Z"/>
      <path transform="translate(508,0) rotate(180) scale(-1, 1)" d="M 156 1516 L 356 1516 L 831 588 C 844 562 856 538 867 517 C 878 495 889 474 899 454 C 909 433 920 412 930 390 C 940 368 952 345 965 319 L 969 319 L 969 1516 L 1126 1516 L 1126 0 L 969 0 L 461 977 C 446 1004 433 1029 422 1051 C 410 1073 399 1094 389 1116 C 378 1138 367 1160 356 1184 C 344 1207 331 1234 317 1264 L 313 1264 L 313 0 L 156 0 L 156 1516 Z"/>
      <path transform="translate(1792,0) rotate(180) scale(-1, 1)" d="M 156 1516 L 489 1516 C 593 1516 686 1501 766 1472 C 846 1443 914 1398 968 1337 C 1022 1276 1063 1198 1091 1102 C 1119 1006 1133 892 1133 760 C 1133 626 1118 512 1090 416 C 1062 320 1020 242 966 180 C 911 118 844 73 764 44 C 684 14 592 0 489 0 L 156 0 L 156 1516 Z M 512 154 C 588 154 654 165 710 189 C 766 212 813 248 850 297 C 887 346 915 409 933 485 C 951 561 961 653 961 760 C 961 864 951 953 933 1029 C 915 1104 887 1166 850 1215 C 813 1263 766 1299 710 1323 C 653 1346 586 1358 510 1358 L 328 1358 L 328 154 L 512 154 Z"/>
      <path transform="translate(3019,0) rotate(180) scale(-1, 1)" d="M 168 1516 L 340 1516 L 340 0 L 168 0 L 168 1516 Z"/>
      <path transform="translate(3527,0) rotate(180) scale(-1, 1)" d="M 215 0 L 53 0 L 498 1522 L 657 1522 L 1102 0 L 930 0 L 809 436 L 336 436 L 215 0 Z M 702 817 C 689 861 677 904 666 945 C 654 986 643 1026 633 1064 C 623 1102 613 1139 603 1175 C 593 1211 584 1248 575 1284 L 571 1284 C 561 1247 552 1210 543 1174 C 533 1138 523 1101 513 1063 C 503 1025 492 987 480 947 C 468 907 456 865 444 821 L 379 586 L 768 586 L 702 817 Z"/>
      <path transform="translate(4682,0) rotate(180) scale(-1, 1)" d="M 156 1516 L 356 1516 L 831 588 C 844 562 856 538 867 517 C 878 495 889 474 899 454 C 909 433 920 412 930 390 C 940 368 952 345 965 319 L 969 319 L 969 1516 L 1126 1516 L 1126 0 L 969 0 L 461 977 C 446 1004 433 1029 422 1051 C 410 1073 399 1094 389 1116 C 378 1138 367 1160 356 1184 C 344 1207 331 1234 317 1264 L 313 1264 L 313 0 L 156 0 L 156 1516 Z"/>
      <path transform="translate(5966,0) rotate(180) scale(-1, 1)" d="M 215 0 L 53 0 L 498 1522 L 657 1522 L 1102 0 L 930 0 L 809 436 L 336 436 L 215 0 Z M 702 817 C 689 861 677 904 666 945 C 654 986 643 1026 633 1064 C 623 1102 613 1139 603 1175 C 593 1211 584 1248 575 1284 L 571 1284 C 561 1247 552 1210 543 1174 C 533 1138 523 1101 513 1063 C 503 1025 492 987 480 947 C 468 907 456 865 444 821 L 379 586 L 768 586 L 702 817 Z"/>
      <path transform="translate(7121,0) rotate(180) scale(-1, 1)" d=""/>
      <path transform="translate(7529,0) rotate(180) scale(-1, 1)" d="M 616 -27 C 532 -27 460 -14 400 10 C 340 35 292 71 254 117 C 216 163 188 218 170 282 C 152 346 143 418 143 498 L 143 1516 L 315 1516 L 315 520 C 315 456 320 400 330 351 C 340 302 358 261 382 228 C 406 194 437 169 476 151 C 514 133 562 125 618 125 C 674 125 721 133 760 151 C 798 168 830 193 854 227 C 878 261 895 302 906 350 C 916 398 922 454 922 516 L 922 1516 L 1087 1516 L 1087 502 C 1087 424 1078 353 1060 289 C 1042 224 1014 168 976 121 C 938 74 889 38 829 12 C 769 -14 698 -27 616 -27 Z"/>
      <path transform="translate(8762,0) rotate(180) scale(-1, 1)" d="M 156 1516 L 356 1516 L 831 588 C 844 562 856 538 867 517 C 878 495 889 474 899 454 C 909 433 920 412 930 390 C 940 368 952 345 965 319 L 969 319 L 969 1516 L 1126 1516 L 1126 0 L 969 0 L 461 977 C 446 1004 433 1029 422 1051 C 410 1073 399 1094 389 1116 C 378 1138 367 1160 356 1184 C 344 1207 331 1234 317 1264 L 313 1264 L 313 0 L 156 0 L 156 1516 Z"/>
      <path transform="translate(10046,0) rotate(180) scale(-1, 1)" d="M 168 1516 L 340 1516 L 340 0 L 168 0 L 168 1516 Z"/>
      <path transform="translate(10554,0) rotate(180) scale(-1, 1)" d="M 53 1516 L 225 1516 L 453 696 C 477 610 499 530 519 456 C 538 382 557 309 575 236 L 580 236 C 588 273 597 310 607 346 C 617 382 627 419 637 456 C 647 493 657 531 668 570 C 678 608 690 649 702 692 L 930 1516 L 1092 1516 L 653 -6 L 492 -6 L 53 1516 Z"/>
      <path transform="translate(11699,0) rotate(180) scale(-1, 1)" d="M 156 1516 L 930 1516 L 930 1358 L 328 1358 L 328 879 L 768 879 L 768 723 L 328 723 L 328 156 L 965 156 L 965 0 L 156 0 L 156 1516 Z"/>
      <path transform="translate(12739,0) rotate(180) scale(-1, 1)" d="M 156 1516 L 586 1516 C 659 1516 724 1507 781 1490 C 838 1472 886 1446 926 1410 C 965 1374 995 1330 1016 1276 C 1036 1222 1047 1158 1047 1085 C 1047 1024 1039 970 1024 924 C 1008 878 987 838 961 805 C 935 771 904 744 870 723 C 835 701 798 686 760 676 L 1067 0 L 891 0 L 594 645 L 326 645 L 326 0 L 156 0 L 156 1516 Z M 575 793 C 625 793 669 798 707 808 C 745 818 777 834 803 857 C 829 880 848 910 861 947 C 874 983 881 1029 881 1083 C 881 1133 874 1175 861 1210 C 848 1245 829 1274 804 1296 C 778 1318 746 1333 708 1343 C 670 1353 625 1358 575 1358 L 326 1358 L 326 793 L 575 793 Z"/>
      <path transform="translate(13906,0) rotate(180) scale(-1, 1)" d="M 571 -25 C 507 -25 450 -16 399 0 C 347 17 301 41 260 72 C 218 103 182 141 150 185 C 118 229 91 279 68 334 L 215 401 C 232 361 252 324 275 290 C 298 256 324 227 354 203 C 383 179 416 160 452 147 C 488 133 527 127 571 127 C 615 127 655 132 691 144 C 726 156 756 172 780 193 C 804 214 823 240 836 270 C 849 300 856 333 856 371 C 856 415 847 453 830 486 C 812 518 789 547 761 573 C 732 598 699 621 662 641 C 624 661 585 680 545 700 C 513 715 480 731 447 747 C 414 763 382 781 352 800 C 322 819 293 840 267 864 C 241 887 218 913 198 943 C 178 972 163 1005 152 1042 C 140 1078 135 1120 135 1167 C 135 1222 145 1273 166 1319 C 187 1365 216 1405 253 1439 C 290 1472 334 1498 384 1516 C 434 1534 488 1544 547 1544 C 607 1544 660 1535 708 1518 C 756 1501 798 1478 835 1449 C 872 1420 904 1386 931 1348 C 958 1309 981 1268 999 1225 L 852 1153 C 838 1185 821 1215 803 1244 C 785 1273 763 1299 739 1321 C 714 1343 686 1360 654 1373 C 622 1386 585 1393 545 1393 C 509 1393 476 1387 446 1377 C 416 1366 391 1351 370 1332 C 349 1312 333 1289 322 1262 C 310 1235 305 1206 305 1174 C 305 1130 313 1091 330 1059 C 347 1026 370 997 398 972 C 426 946 459 923 496 903 C 532 883 570 863 610 844 C 642 828 675 812 708 796 C 741 780 773 762 804 743 C 834 723 863 702 890 679 C 916 655 940 629 960 599 C 980 569 995 536 1007 499 C 1018 462 1024 421 1024 375 C 1024 319 1013 267 992 219 C 971 170 941 128 902 92 C 862 56 815 27 759 6 C 703 -14 641 -25 571 -25 Z"/>
      <path transform="translate(15026,0) rotate(180) scale(-1, 1)" d="M 168 1516 L 340 1516 L 340 0 L 168 0 L 168 1516 Z"/>
      <path transform="translate(15534,0) rotate(180) scale(-1, 1)" d="M 444 1358 L 53 1358 L 53 1516 L 1008 1516 L 1008 1358 L 616 1358 L 616 0 L 444 0 L 444 1358 Z"/>
      <path transform="translate(16597,0) rotate(180) scale(-1, 1)" d="M 453 625 L 33 1516 L 209 1516 L 541 782 L 545 782 L 877 1516 L 1042 1516 L 625 629 L 625 0 L 453 0 L 453 625 Z"/>
    </g>
  </g>
  <g transform="translate(361.679375,34.225)">
    <g transform="scale(0.0159375) translate(0, 0)">
      <path transform="translate(0,0) rotate(180) scale(-1, 1)" d="M 125 1516 L 436 1516 L 436 256 L 1006 256 L 1006 0 L 125 0 L 125 1516 Z"/>
      <path transform="translate(1049,0) rotate(180) scale(-1, 1)" d="M 137 1516 L 449 1516 L 449 0 L 137 0 L 137 1516 Z"/>
      <path transform="translate(1633,0) rotate(180) scale(-1, 1)" d="M 125 1516 L 643 1516 C 707 1516 767 1510 825 1499 C 883 1487 933 1467 977 1439 C 1021 1411 1055 1372 1081 1323 C 1107 1274 1120 1212 1120 1137 C 1120 1081 1113 1034 1099 994 C 1085 954 1066 920 1043 892 C 1020 864 994 842 964 826 C 934 809 904 796 872 788 L 872 784 C 912 776 950 764 984 748 C 1018 732 1048 709 1074 681 C 1099 652 1119 616 1133 573 C 1147 529 1155 476 1155 414 C 1155 338 1141 273 1114 221 C 1086 168 1050 125 1004 93 C 958 60 906 36 847 22 C 787 7 726 0 662 0 L 125 0 L 125 1516 Z M 623 885 C 691 885 743 899 777 929 C 811 959 829 1007 829 1073 C 829 1139 812 1187 780 1217 C 747 1247 695 1262 625 1262 L 428 1262 L 428 885 L 623 885 Z M 641 244 C 716 244 771 262 806 298 C 840 334 858 386 858 455 C 858 527 838 581 798 615 C 758 649 701 666 627 666 L 428 666 L 428 244 L 641 244 Z"/>
      <path transform="translate(2868,0) rotate(180) scale(-1, 1)" d="M 125 1516 L 598 1516 C 678 1516 749 1507 813 1489 C 877 1471 931 1443 975 1405 C 1019 1367 1052 1317 1076 1257 C 1100 1197 1112 1124 1112 1040 C 1112 988 1105 941 1093 898 C 1081 855 1064 817 1042 783 C 1020 749 993 720 963 696 C 932 671 898 651 862 637 L 1151 0 L 829 0 L 573 561 L 430 561 L 430 0 L 125 0 L 125 1516 Z M 588 799 C 626 799 659 803 687 811 C 715 819 739 833 758 852 C 777 870 791 894 801 924 C 810 954 815 990 815 1034 C 815 1074 810 1109 801 1137 C 791 1165 777 1188 758 1206 C 739 1223 715 1235 687 1243 C 659 1251 626 1255 588 1255 L 430 1255 L 430 799 L 588 799 Z"/>
      <path transform="translate(4082,0) rotate(180) scale(-1, 1)" d="M 313 0 L 23 0 L 467 1522 L 766 1522 L 1210 0 L 897 0 L 815 319 L 397 319 L 313 0 Z M 713 715 C 703 755 693 792 684 827 C 674 861 665 895 657 928 C 648 961 640 994 632 1026 C 624 1058 617 1092 610 1128 L 606 1128 C 599 1092 592 1058 584 1026 C 576 994 568 961 560 929 C 551 896 542 862 532 828 C 522 794 512 757 502 717 L 461 561 L 752 561 L 713 715 Z"/>
      <path transform="translate(5315,0) rotate(180) scale(-1, 1)" d="M 125 1516 L 598 1516 C 678 1516 749 1507 813 1489 C 877 1471 931 1443 975 1405 C 1019 1367 1052 1317 1076 1257 C 1100 1197 1112 1124 1112 1040 C 1112 988 1105 941 1093 898 C 1081 855 1064 817 1042 783 C 1020 749 993 720 963 696 C 932 671 898 651 862 637 L 1151 0 L 829 0 L 573 561 L 430 561 L 430 0 L 125 0 L 125 1516 Z M 588 799 C 626 799 659 803 687 811 C 715 819 739 833 758 852 C 777 870 791 894 801 924 C 810 954 815 990 815 1034 C 815 1074 810 1109 801 1137 C 791 1165 777 1188 758 1206 C 739 1223 715 1235 687 1243 C 659 1251 626 1255 588 1255 L 430 1255 L 430 799 L 588 799 Z"/>
      <path transform="translate(6529,0) rotate(180) scale(-1, 1)" d="M 137 1516 L 449 1516 L 449 0 L 137 0 L 137 1516 Z"/>
      <path transform="translate(7113,0) rotate(180) scale(-1, 1)" d="M 125 1516 L 993 1516 L 993 1253 L 436 1253 L 436 911 L 838 911 L 838 664 L 436 664 L 436 256 L 1022 256 L 1022 0 L 125 0 L 125 1516 Z"/>
      <path transform="translate(8190,0) rotate(180) scale(-1, 1)" d="M 625 -27 C 551 -27 484 -18 425 0 C 366 17 313 41 267 73 C 221 105 180 143 146 187 C 111 231 81 280 55 334 L 307 461 C 323 428 342 397 364 368 C 385 339 409 314 435 292 C 461 270 490 252 522 240 C 553 227 587 221 625 221 C 691 221 740 236 774 268 C 808 300 825 341 825 393 C 825 424 817 451 803 475 C 788 498 768 519 744 538 C 720 557 691 574 659 590 C 627 606 593 621 557 637 C 507 657 456 680 404 705 C 352 729 304 760 261 796 C 218 832 183 877 156 929 C 128 981 115 1046 115 1122 C 115 1184 127 1242 151 1294 C 175 1346 208 1390 251 1427 C 294 1464 345 1493 404 1513 C 462 1533 526 1544 596 1544 C 660 1544 719 1535 772 1518 C 824 1501 872 1477 914 1447 C 956 1417 992 1381 1024 1340 C 1055 1298 1082 1254 1106 1206 L 864 1075 C 848 1107 830 1136 812 1162 C 794 1188 773 1210 751 1229 C 728 1247 703 1262 677 1272 C 651 1282 622 1288 590 1288 C 562 1288 538 1284 517 1276 C 496 1268 478 1258 464 1244 C 449 1230 438 1214 431 1196 C 423 1178 420 1158 420 1137 C 420 1107 426 1080 440 1057 C 453 1033 471 1012 494 994 C 517 976 544 959 574 943 C 604 927 636 912 670 897 C 704 882 738 867 774 851 C 810 835 845 818 879 799 C 913 779 945 757 975 733 C 1005 709 1032 681 1055 650 C 1078 618 1096 583 1110 543 C 1123 503 1130 457 1130 406 C 1130 348 1119 293 1097 241 C 1075 189 1043 143 1001 103 C 958 63 905 32 842 8 C 779 -15 707 -27 625 -27 Z"/>
    </g>
  </g>
  <g transform="translate(71.552734375,58.3080078125)">
    <g transform="scale(0.00927734375) translate(0, 0)">
      <path transform="translate(0,0) rotate(180) scale(-1, 1)" d="M 156 1516 L 598 1516 C 670 1516 734 1508 791 1493 C 847 1477 895 1454 934 1423 C 972 1391 1002 1352 1022 1304 C 1042 1256 1053 1199 1053 1135 C 1053 1081 1046 1035 1032 996 C 1018 956 1000 923 978 895 C 956 867 930 844 901 827 C 872 809 843 796 813 788 L 813 784 C 851 776 888 763 922 745 C 956 727 985 704 1011 674 C 1036 644 1056 608 1071 565 C 1086 522 1094 471 1094 412 C 1094 345 1083 286 1062 235 C 1040 183 1010 140 970 106 C 930 71 882 45 825 27 C 768 9 704 0 633 0 L 156 0 L 156 1516 Z M 588 850 C 636 850 678 854 716 864 C 753 874 784 889 810 910 C 836 930 855 957 869 989 C 882 1021 889 1060 889 1106 C 889 1151 883 1190 872 1222 C 860 1254 843 1281 819 1302 C 795 1322 764 1337 726 1347 C 688 1357 644 1362 592 1362 L 326 1362 L 326 850 L 588 850 Z M 629 150 C 733 150 809 173 857 220 C 904 267 928 336 928 428 C 928 480 920 523 905 559 C 889 594 867 623 839 645 C 811 667 776 682 735 692 C 694 702 648 707 596 707 L 326 707 L 326 150 L 629 150 Z"/>
      <path transform="translate(1188,0) rotate(180) scale(-1, 1)" d="M 141 1516 L 307 1516 L 307 0 L 141 0 L 141 1516 Z"/>
      <path transform="translate(1639,0) rotate(180) scale(-1, 1)" d="M 508 -23 C 448 -23 392 -11 340 13 C 288 37 242 72 204 120 C 165 167 135 226 113 296 C 91 366 80 448 80 541 C 80 633 91 715 113 785 C 135 855 165 914 203 962 C 241 1009 287 1044 339 1068 C 391 1092 447 1104 508 1104 C 568 1104 624 1092 676 1068 C 728 1044 773 1009 811 962 C 849 914 879 855 901 785 C 923 715 934 633 934 541 C 934 448 923 366 901 296 C 879 226 849 167 811 120 C 773 72 728 37 676 13 C 624 -11 568 -23 508 -23 Z M 508 117 C 550 117 588 127 621 147 C 653 167 680 195 702 232 C 724 269 740 314 751 366 C 762 418 768 477 768 541 C 768 599 762 653 752 704 C 742 755 726 800 705 838 C 684 876 657 906 624 928 C 591 950 552 961 508 961 C 464 961 426 951 394 931 C 361 911 334 882 312 845 C 290 808 273 764 262 712 C 251 660 246 603 246 541 C 246 481 251 426 261 375 C 271 323 286 278 307 240 C 328 202 355 172 388 150 C 421 128 461 117 508 117 Z"/>
      <path transform="translate(2653,0) rotate(180) scale(-1, 1)" d="M 508 -23 C 448 -23 392 -11 340 13 C 288 37 242 72 204 120 C 165 167 135 226 113 296 C 91 366 80 448 80 541 C 80 633 91 715 113 785 C 135 855 165 914 203 962 C 241 1009 287 1044 339 1068 C 391 1092 447 1104 508 1104 C 568 1104 624 1092 676 1068 C 728 1044 773 1009 811 962 C 849 914 879 855 901 785 C 923 715 934 633 934 541 C 934 448 923 366 901 296 C 879 226 849 167 811 120 C 773 72 728 37 676 13 C 624 -11 568 -23 508 -23 Z M 508 117 C 550 117 588 127 621 147 C 653 167 680 195 702 232 C 724 269 740 314 751 366 C 762 418 768 477 768 541 C 768 599 762 653 752 704 C 742 755 726 800 705 838 C 684 876 657 906 624 928 C 591 950 552 961 508 961 C 464 961 426 951 394 931 C 361 911 334 882 312 845 C 290 808 273 764 262 712 C 251 660 246 603 246 541 C 246 481 251 426 261 375 C 271 323 286 278 307 240 C 328 202 355 172 388 150 C 421 128 461 117 508 117 Z"/>
      <path transform="translate(3667,0) rotate(180) scale(-1, 1)" d="M 131 1081 L 297 1081 L 297 932 C 316 952 338 973 362 994 C 386 1014 413 1033 441 1049 C 469 1065 498 1079 530 1089 C 561 1099 593 1104 627 1104 C 663 1104 695 1100 723 1092 C 751 1084 775 1073 795 1059 C 815 1044 831 1026 843 1005 C 855 983 865 959 872 932 C 892 954 915 975 940 996 C 964 1016 991 1035 1019 1051 C 1047 1067 1078 1079 1110 1089 C 1142 1099 1175 1104 1210 1104 C 1297 1104 1363 1078 1407 1027 C 1451 976 1473 901 1473 803 L 1473 0 L 1309 0 L 1309 768 C 1309 832 1297 880 1274 911 C 1251 942 1212 958 1157 958 C 1131 958 1107 954 1083 946 C 1059 938 1035 927 1012 914 C 989 900 967 885 946 867 C 924 849 904 831 885 813 L 885 0 L 719 0 L 719 768 C 719 800 716 828 712 852 C 707 876 699 895 688 911 C 677 927 662 938 643 946 C 624 954 601 958 573 958 C 527 958 480 943 434 915 C 388 887 342 850 297 805 L 297 0 L 131 0 L 131 1081 Z"/>
      <path transform="translate(5262,0) rotate(180) scale(-1, 1)" d="M 141 1475 L 309 1475 L 309 1296 L 141 1296 L 141 1475 Z M 141 1081 L 307 1081 L 307 0 L 141 0 L 141 1081 Z"/>
      <path transform="translate(5713,0) rotate(180) scale(-1, 1)" d="M 131 1081 L 297 1081 L 297 932 C 315 952 336 972 361 992 C 385 1012 412 1031 442 1048 C 471 1064 502 1078 536 1088 C 569 1098 603 1104 639 1104 C 726 1104 792 1078 837 1027 C 882 976 905 901 905 803 L 905 0 L 741 0 L 741 768 C 741 832 729 880 706 911 C 682 942 643 958 588 958 C 562 958 535 953 509 944 C 482 935 456 923 431 909 C 405 894 381 877 359 859 C 336 840 315 821 297 803 L 297 0 L 131 0 L 131 1081 Z"/>
      <path transform="translate(6741,0) rotate(180) scale(-1, 1)" d="M 741 995 C 770 1019 804 1041 844 1059 C 884 1077 922 1089 958 1096 L 958 940 C 933 940 907 938 879 934 C 851 930 823 922 795 911 C 810 883 822 852 831 819 C 839 786 844 751 844 713 C 844 653 834 599 816 551 C 797 503 771 463 738 429 C 705 395 666 370 620 352 C 574 334 525 326 471 326 C 415 326 366 334 324 350 C 305 340 290 328 279 314 C 267 300 262 284 262 266 C 262 256 263 247 267 239 C 270 231 276 225 286 219 C 295 213 308 208 324 204 C 340 200 361 196 387 193 L 555 172 C 621 164 678 153 725 139 C 772 125 810 106 840 84 C 870 62 891 35 905 4 C 919 -26 926 -62 926 -104 C 926 -152 914 -195 890 -233 C 866 -271 834 -303 792 -329 C 750 -355 700 -375 643 -389 C 585 -403 523 -410 457 -410 C 379 -410 314 -404 260 -392 C 206 -380 162 -362 128 -340 C 94 -318 69 -290 54 -258 C 38 -226 31 -190 31 -150 C 31 -95 46 -47 78 -7 C 109 33 152 66 207 92 C 178 107 156 126 140 148 C 124 170 117 196 117 227 C 117 259 128 290 150 320 C 172 350 199 376 233 397 C 187 432 152 477 127 531 C 102 585 90 646 90 713 C 90 771 99 824 118 872 C 136 920 162 961 196 995 C 230 1029 270 1056 316 1075 C 362 1094 413 1104 469 1104 C 525 1104 577 1094 623 1076 C 669 1057 708 1030 741 995 Z M 471 449 C 505 449 535 455 562 467 C 589 479 612 497 631 520 C 649 542 663 570 673 602 C 683 634 688 671 688 711 C 688 791 669 855 632 902 C 595 949 541 973 469 973 C 434 973 403 966 376 954 C 348 941 325 923 307 900 C 288 877 274 850 264 818 C 254 786 250 750 250 711 C 250 671 255 634 265 602 C 275 570 289 542 308 520 C 327 497 350 479 378 467 C 405 455 436 449 471 449 Z M 322 59 C 275 37 240 10 218 -22 C 195 -54 184 -89 184 -125 C 184 -153 189 -177 199 -198 C 209 -218 225 -235 248 -249 C 270 -263 300 -273 338 -280 C 375 -287 421 -291 475 -291 C 518 -291 558 -287 594 -279 C 630 -271 662 -261 688 -247 C 714 -233 735 -215 750 -195 C 764 -174 772 -151 772 -125 C 772 -103 768 -83 760 -66 C 752 -49 739 -34 721 -21 C 703 -8 678 2 647 11 C 615 19 576 27 528 33 L 352 55 C 346 56 341 57 337 57 C 332 57 327 57 322 59 Z"/>
      <path transform="translate(7751,0) rotate(180) scale(-1, 1)" d="M 467 -12 C 417 -12 375 -7 341 1 C 307 10 279 25 258 45 C 236 65 221 92 211 125 C 201 157 197 197 197 244 L 197 944 L 37 944 L 37 1081 L 197 1081 L 197 1466 L 360 1466 L 360 1081 L 598 1081 L 598 944 L 360 944 L 360 281 C 360 253 362 229 366 209 C 370 189 378 172 389 159 C 399 146 414 136 433 130 C 451 124 475 121 504 121 C 520 121 537 122 554 125 C 571 127 585 131 596 135 L 596 2 C 590 0 582 -1 572 -3 C 562 -5 551 -6 539 -8 C 527 -9 515 -10 503 -11 C 491 -11 479 -12 467 -12 Z"/>
      <path transform="translate(8417,0) rotate(180) scale(-1, 1)" d="M 508 -23 C 448 -23 392 -11 340 13 C 288 37 242 72 204 120 C 165 167 135 226 113 296 C 91 366 80 448 80 541 C 80 633 91 715 113 785 C 135 855 165 914 203 962 C 241 1009 287 1044 339 1068 C 391 1092 447 1104 508 1104 C 568 1104 624 1092 676 1068 C 728 1044 773 1009 811 962 C 849 914 879 855 901 785 C 923 715 934 633 934 541 C 934 448 923 366 901 296 C 879 226 849 167 811 120 C 773 72 728 37 676 13 C 624 -11 568 -23 508 -23 Z M 508 117 C 550 117 588 127 621 147 C 653 167 680 195 702 232 C 724 269 740 314 751 366 C 762 418 768 477 768 541 C 768 599 762 653 752 704 C 742 755 726 800 705 838 C 684 876 657 906 624 928 C 591 950 552 961 508 961 C 464 961 426 951 394 931 C 361 911 334 882 312 845 C 290 808 273 764 262 712 C 251 660 246 603 246 541 C 246 481 251 426 261 375 C 271 323 286 278 307 240 C 328 202 355 172 388 150 C 421 128 461 117 508 117 Z"/>
      <path transform="translate(9431,0) rotate(180) scale(-1, 1)" d="M 131 1081 L 297 1081 L 297 932 C 315 952 336 972 361 992 C 385 1012 412 1031 442 1048 C 471 1064 502 1078 536 1088 C 569 1098 603 1104 639 1104 C 726 1104 792 1078 837 1027 C 882 976 905 901 905 803 L 905 0 L 741 0 L 741 768 C 741 832 729 880 706 911 C 682 942 643 958 588 958 C 562 958 535 953 509 944 C 482 935 456 923 431 909 C 405 894 381 877 359 859 C 336 840 315 821 297 803 L 297 0 L 131 0 L 131 1081 Z"/>
    </g>
  </g>
</svg>
